#!OML:ASF E:\emotionWalksFemale\Project 1\Capture day 1\Session 1\Female1.ASF
:FULLY-SPECIFIED
:DEGREES
779
root 9.68788 15.538 2.47885 181.323 -11.133 -181.132
lowerback 4.37056 -1.52067 -1.82529
upperback -1.19882 -2.09231 2.98654
thorax -3.5135 -0.995049 4.27077
lowerneck -2.34403 -2.10064 -7.7312
upperneck 33.0461 -15.0851 17.3146
head 13.5116 -8.16051 5.90718
rclavicle -1.02623e-014 -1.03368e-014
rhumerus -41.9096 -0.810073 -77.7195
rradius 31.5827
rwrist 15.9202
rhand -7.20607 -51.3913
rfingers 7.12502
rthumb 18.6726 -80.5151
lclavicle -1.02623e-014 -1.03368e-014
lhumerus -38.7138 -7.40969 92.6567
lradius 37.1574
lwrist -14.2536
lhand -2.99017 -33.3883
lfingers 7.12502
lthumb 22.7234 -4.70636
rfemur -18.2313 18.3728 22.4088
rtibia 18.803
rfoot -10.4534 -30.3756
rtoes 12.5811
lfemur 9.61558 -4.11775 -23.4198
ltibia 34.4921
lfoot 12.4636 -11.4824
ltoes 15.8773
780
root 9.69913 15.5504 2.35618 181.199 -11.296 -180.975
lowerback 4.52654 -1.53379 -1.6442
upperback -1.19573 -2.10142 2.99592
thorax -3.6034 -1.00255 4.18478
lowerneck -2.2264 -2.15773 -7.70723
upperneck 32.9359 -15.0903 17.2449
head 13.4266 -8.16511 5.87346
rclavicle -4.3919e-014 -1.19271e-014
rhumerus -42.0342 -0.866141 -77.6015
rradius 31.5731
rwrist 16.0624
rhand -7.78147 -51.2016
rfingers 7.12502
rthumb 18.1191 -80.3777
lclavicle -4.3919e-014 -1.19271e-014
lhumerus -38.7317 -7.52171 92.5207
lradius 37.4286
lwrist -14.0616
lhand -2.60464 -33.0816
lfingers 7.12502
lthumb 23.0934 -4.4455
rfemur -17.557 17.8434 22.9894
rtibia 18.6958
rfoot -9.8047 -30.079
rtoes 12.2735
lfemur 8.50284 -4.02966 -22.8032
ltibia 36.7378
lfoot 14.4524 -12.0028
ltoes 16.0755
781
root 9.70907 15.5602 2.23663 181.062 -11.4642 -180.863
lowerback 4.66623 -1.54143 -1.52685
upperback -1.20604 -2.10594 3.02145
thorax -3.69572 -1.0062 4.15124
lowerneck -1.89317 -2.1487 -7.85597
upperneck 32.6577 -15.0694 17.4821
head 13.2598 -8.17712 6.00742
rclavicle -8.39865e-015 -7.95139e-015
rhumerus -42.1637 -0.954376 -77.384
rradius 31.7936
rwrist 16.2669
rhand -6.58524 -51.9606
rfingers 7.12502
rthumb 19.2697 -81.0259
lclavicle -8.39865e-015 -7.95139e-015
lhumerus -38.7286 -7.52232 92.4325
lradius 37.6642
lwrist -13.8905
lhand -2.42249 -33.1566
lfingers 7.12502
lthumb 23.2681 -4.54248
rfemur -16.7946 17.1688 23.5417
rtibia 18.4874
rfoot -9.01751 -29.6813
rtoes 10.9028
lfemur 7.32938 -3.95859 -22.2657
ltibia 39.0861
lfoot 16.2437 -12.3772
ltoes 15.7629
782
root 9.72033 15.5699 2.11538 180.882 -11.634 -180.698
lowerback 4.81361 -1.51689 -1.37122
upperback -1.19152 -2.06507 3.02587
thorax -3.77231 -0.988734 4.07027
lowerneck -1.87583 -2.17557 -7.85609
upperneck 32.5648 -15.14 17.6425
head 13.2469 -8.19622 6.06212
rclavicle 1.54058e-014 2.06736e-014
rhumerus -42.2709 -0.931788 -77.3966
rradius 31.0928
rwrist 16.3398
rhand -7.41131 -51.5426
rfingers 7.12502
rthumb 18.4752 -80.6852
lclavicle 1.54058e-014 2.06736e-014
lhumerus -38.6304 -7.7511 92.3328
lradius 37.7853
lwrist -13.8242
lhand -2.36948 -33.3046
lfingers 7.12502
lthumb 23.319 -4.69693
rfemur -15.927 16.7562 24.1186
rtibia 18.1636
rfoot -8.68209 -29.4793
rtoes 10.8076
lfemur 6.15636 -3.84987 -21.6659
ltibia 41.4764
lfoot 17.5214 -13.1546
ltoes 12.2642
783
root 9.736 15.5786 1.99472 180.717 -11.8208 -180.366
lowerback 4.84462 -1.50658 -1.1904
upperback -1.14446 -2.04358 3.11663
thorax -3.74564 -0.984744 4.06119
lowerneck -2.01056 -2.20449 -7.75091
upperneck 32.6869 -15.1755 17.5312
head 13.3192 -8.19441 5.9904
rclavicle 4.53726e-014 -4.21423e-014
rhumerus -42.2476 -0.883181 -77.3464
rradius 30.8437
rwrist 16.6108
rhand -6.65637 -51.7197
rfingers 7.12502
rthumb 19.2013 -80.7918
lclavicle 4.53726e-014 -4.21423e-014
lhumerus -38.3739 -7.85521 92.2121
lradius 37.833
lwrist -13.8848
lhand -2.6369 -33.2808
lfingers 7.12502
lthumb 23.0624 -4.64087
rfemur -15.0883 16.5476 24.8318
rtibia 17.7256
rfoot -8.60955 -29.46
rtoes 12.0054
lfemur 4.91383 -3.77138 -20.8763
ltibia 43.8426
lfoot 19.0528 -13.3897
ltoes 12.5267
784
root 9.74978 15.5871 1.87978 180.521 -11.9771 -179.902
lowerback 4.87196 -1.50454 -0.858783
upperback -1.04317 -2.02828 3.28281
thorax -3.6626 -0.990339 4.0445
lowerneck -2.13733 -2.2371 -7.78112
upperneck 32.7867 -15.1522 17.3881
head 13.3735 -8.17833 5.94007
rclavicle 3.87133e-014 7.15625e-015
rhumerus -42.072 -0.680783 -77.2682
rradius 30.8865
rwrist 16.7992
rhand -6.37528 -51.3386
rfingers 7.12502
rthumb 19.4716 -80.3836
lclavicle 3.87133e-014 7.15625e-015
lhumerus -38.0446 -7.80522 92.1457
lradius 38.0293
lwrist -13.5637
lhand -2.46183 -32.8734
lfingers 7.12502
lthumb 23.2304 -4.25453
rfemur -14.2356 16.3345 25.6657
rtibia 17.1986
rfoot -8.47571 -29.3951
rtoes 13.0264
lfemur 3.61688 -3.6601 -19.9925
ltibia 46.133
lfoot 20.6838 -13.164
ltoes 13.6944
785
root 9.75707 15.598 1.76869 180.304 -12.0292 -179.477
lowerback 5.01195 -1.4685 -0.349118
upperback -0.934817 -1.95652 3.36157
thorax -3.64846 -0.970402 3.83576
lowerneck -2.3784 -2.31248 -7.82025
upperneck 32.895 -15.2315 17.3168
head 13.4868 -8.19719 5.90167
rclavicle 3.18055e-015 -2.22639e-014
rhumerus -41.7958 -0.556473 -77.2444
rradius 30.7346
rwrist 16.9884
rhand -6.29674 -51.2899
rfingers 7.12502
rthumb 19.5471 -80.3273
lclavicle 3.18055e-015 -2.22639e-014
lhumerus -37.6717 -7.85142 92.0396
lradius 38.2191
lwrist -13.2087
lhand -2.04376 -32.4951
lfingers 7.12502
lthumb 23.6314 -3.92741
rfemur -13.3786 15.9439 26.4509
rtibia 16.687
rfoot -8.21786 -29.0878
rtoes 13.3597
lfemur 2.30596 -3.47503 -19.2507
ltibia 48.3042
lfoot 22.0281 -13.1486
ltoes 11.0629
786
root 9.76455 15.6062 1.65708 180.11 -12.0819 -179.24
lowerback 5.06807 -1.43748 -0.0875082
upperback -0.84515 -1.90436 3.40433
thorax -3.59756 -0.95343 3.72832
lowerneck -2.3216 -2.31625 -7.93928
upperneck 32.8355 -15.2595 17.458
head 13.4775 -8.21563 5.98034
rclavicle -1.0312e-014 -1.35174e-014
rhumerus -41.5802 -0.412761 -77.2238
rradius 30.4908
rwrist 17.2097
rhand -6.24349 -51.4322
rfingers 7.12502
rthumb 19.5983 -80.4644
lclavicle -1.0312e-014 -1.35174e-014
lhumerus -37.2658 -7.73875 91.8833
lradius 38.1854
lwrist -13.4061
lhand -2.41318 -32.8947
lfingers 7.12502
lthumb 23.277 -4.28175
rfemur -12.5417 15.5843 27.0344
rtibia 16.2775
rfoot -7.96695 -28.8489
rtoes 12.9134
lfemur 1.04466 -3.36939 -18.7599
ltibia 50.3345
lfoot 23.3317 -12.6738
ltoes 10.1791
787
root 9.77492 15.6079 1.54639 179.926 -12.1133 -179.091
lowerback 5.10813 -1.40504 -0.0680333
upperback -0.810242 -1.86297 3.49629
thorax -3.58437 -0.935332 3.81071
lowerneck -2.05436 -2.26304 -8.11043
upperneck 32.7332 -15.1706 17.5618
head 13.3775 -8.20758 6.07713
rclavicle -1.65737e-014 3.57812e-014
rhumerus -41.5713 0.00819605 -77.2428
rradius 30.465
rwrist 17.09
rhand -6.34837 -51.3977
rfingers 7.12502
rthumb 19.4974 -80.4402
lclavicle -1.65737e-014 3.57812e-014
lhumerus -37.1342 -7.71 91.8544
lradius 38.3243
lwrist -13.4793
lhand -3.21925 -33.4661
lfingers 7.12502
lthumb 22.5035 -4.7574
rfemur -11.7491 15.5506 27.5146
rtibia 16.0113
rfoot -7.89728 -28.8794
rtoes 12.334
lfemur -0.0990716 -3.28205 -18.3694
ltibia 52.2519
lfoot 24.0824 -11.9784
ltoes 9.05833
788
root 9.78514 15.6096 1.44138 179.829 -12.1019 -178.884
lowerback 5.18155 -1.31991 0.147813
upperback -0.786102 -1.73782 3.51779
thorax -3.6145 -0.878802 3.70349
lowerneck -2.06162 -2.31979 -8.09471
upperneck 32.7353 -15.2384 17.5346
head 13.3899 -8.23216 6.05319
rclavicle -1.01753e-014 -3.65764e-014
rhumerus -41.483 0.44007 -77.4267
rradius 30.461
rwrist 16.6191
rhand -6.68736 -51.4237
rfingers 7.12502
rthumb 19.1715 -80.4987
lclavicle -1.01753e-014 -3.65764e-014
lhumerus -36.8917 -8.11247 91.882
lradius 38.5724
lwrist -13.1221
lhand -3.85488 -33.4379
lfingers 7.12502
lthumb 21.8933 -4.65661
rfemur -11.1897 15.5806 28
rtibia 15.896
rfoot -7.80006 -28.8597
rtoes 11.5647
lfemur -1.37052 -3.1607 -17.9317
ltibia 54.0851
lfoot 23.7766 -11.599
ltoes 2.84764
789
root 9.79266 15.6118 1.33746 179.712 -12.0987 -178.639
lowerback 5.23336 -1.20517 0.484318
upperback -0.721648 -1.56647 3.46694
thorax -3.59754 -0.802032 3.44692
lowerneck -2.01339 -2.38583 -7.94797
upperneck 32.705 -15.4444 17.658
head 13.4119 -8.30518 6.04726
rclavicle -2.69602e-015 -2.38542e-014
rhumerus -41.1737 0.570193 -77.608
rradius 30.1459
rwrist 16.9008
rhand -6.76734 -51.448
rfingers 7.12502
rthumb 19.0946 -80.5307
lclavicle -2.69602e-015 -2.38542e-014
lhumerus -36.3845 -8.51292 91.8108
lradius 38.617
lwrist -12.7739
lhand -4.26487 -33.4206
lfingers 7.12502
lthumb 21.4996 -4.59379
rfemur -10.6931 15.2846 28.5158
rtibia 15.8799
rfoot -7.77151 -28.5663
rtoes 10.4922
lfemur -2.64126 -3.07415 -17.4926
ltibia 55.8233
lfoot 23.2515 -10.98
ltoes -1.10176
